<?xml version="1.0"?>

<!-- Created with Inkscape (http://www.inkscape.org/) --> <svg xmlns:dc="http://purl.org/dc/elements/1.1/" xmlns:cc="http://creativecommons.org/ns#" xmlns:rdf="http://www.w3.org/1999/02/22-rdf-syntax-ns#" xmlns:svg="http://www.w3.org/2000/svg" xmlns="http://www.w3.org/2000/svg" xmlns:sodipodi="http://sodipodi.sourceforge.net/DTD/sodipodi-0.dtd" xmlns:inkscape="http://www.inkscape.org/namespaces/inkscape" width="37.530941" height="29.184622" viewBox="0 0 37.530941 29.184622" version="1.1" id="svg7966" inkscape:version="0.92.1 15371" sodipodi:docname="ants_rule2.svg"> <defs id="defs7960"> <marker inkscape:isstock="true" style="overflow:visible" id="marker11715" refX="0" refY="0" orient="auto" inkscape:stockid="Arrow2Mend"> <path inkscape:connector-curvature="0" transform="scale(-0.6)" d="M 8.7185878,4.0337352 -2.2072895,0.01601326 8.7185884,-4.0017078 c -1.7454984,2.3720609 -1.7354408,5.6174519 -6e-7,8.035443 z" style="fill:#808080;fill-opacity:1;fill-rule:evenodd;stroke:#999999;stroke-width:0.625;stroke-linejoin:round;stroke-opacity:1" id="path11713"></path> </marker> <marker inkscape:stockid="Arrow2Mend" orient="auto" refY="0" refX="0" id="marker11645" style="overflow:visible" inkscape:isstock="true" inkscape:collect="always"> <path inkscape:connector-curvature="0" id="path4529" style="fill:#808080;fill-opacity:1;fill-rule:evenodd;stroke:#999999;stroke-width:0.625;stroke-linejoin:round;stroke-opacity:1" d="M 8.7185878,4.0337352 -2.2072895,0.01601326 8.7185884,-4.0017078 c -1.7454984,2.3720609 -1.7354408,5.6174519 -6e-7,8.035443 z" transform="scale(-0.6)"></path> </marker> <marker inkscape:isstock="true" style="overflow:visible" id="Arrow2Mend" refX="0" refY="0" orient="auto" inkscape:stockid="Arrow2Mend"> <path inkscape:connector-curvature="0" transform="scale(-0.6)" d="M 8.7185878,4.0337352 -2.2072895,0.01601326 8.7185884,-4.0017078 c -1.7454984,2.3720609 -1.7354408,5.6174519 -6e-7,8.035443 z" style="fill:#808080;fill-opacity:1;fill-rule:evenodd;stroke:#999999;stroke-width:0.625;stroke-linejoin:round;stroke-opacity:1" id="path9526"></path> </marker> </defs> <sodipodi:namedview id="base" pagecolor="#ffffff" bordercolor="#666666" borderopacity="1.0" inkscape:pageopacity="0.0" inkscape:pageshadow="2" inkscape:zoom="0.98994949" inkscape:cx="70.82731" inkscape:cy="-133.73257" inkscape:document-units="mm" inkscape:current-layer="layer1" showgrid="false" fit-margin-top="0" fit-margin-left="0" fit-margin-right="0" fit-margin-bottom="0" inkscape:window-width="1879" inkscape:window-height="1056" inkscape:window-x="41" inkscape:window-y="24" inkscape:window-maximized="1"></sodipodi:namedview> <metadata id="metadata7963"> <rdf:rdf> <cc:work rdf:about=""> <dc:format>image/svg+xml</dc:format> <dc:type rdf:resource="http://purl.org/dc/dcmitype/StillImage"></dc:type> <dc:title></dc:title> </cc:work> </rdf:rdf> </metadata> <g inkscape:label="Calque 1" inkscape:groupmode="layer" id="layer1" transform="translate(-6.3578661,-3.9128414)"> <g id="g3693-8-85-4-1" transform="matrix(0.1072384,-0.06451094,0.06451094,0.1072384,12.551266,11.811709)"> <circle id="circle2-7-8-1-6" r="6.1430001" cy="87.397003" cx="53.415001"></circle> <circle id="circle4-08-43-7-2" r="6.1430001" cy="87.397003" cx="90.667"></circle> <path id="path6-62-71-11-0" d="M 127.279,43.788 105.312,24.3 c -1.189,-1.053 -2.989,-1 -4.112,0.123 L 85.188,40.434 c -3.975,-0.923 -8.362,-1.4 -13.146,-1.4 -4.785,0 -9.173,0.478 -13.148,1.4 L 42.883,24.423 C 41.761,23.3 39.959,23.246 38.771,24.3 L 16.804,43.788 c -1.24,1.1 -1.353,2.996 -0.253,4.235 0.593,0.668 1.417,1.009 2.245,1.009 0.708,0 1.419,-0.249 1.99,-0.756 L 40.639,30.663 52.45,42.475 C 39.805,47.676 32.854,58.618 32.854,74.2 c 0,22.702 14.241,42.564 33.126,46.202 0.88,0.168 1.788,-0.063 2.478,-0.633 0.69,-0.57 1.09,-1.418 1.09,-2.313 v -14.402 h 4.988 v 14.402 c 0,0.896 0.399,1.743 1.09,2.313 0.542,0.447 1.219,0.687 1.91,0.687 0.188,0 0.379,-0.018 0.567,-0.054 18.885,-3.638 33.126,-23.5 33.126,-46.202 0,-15.583 -6.951,-26.524 -19.597,-31.726 l 11.812,-11.811 19.853,17.613 c 0.571,0.507 1.282,0.756 1.99,0.756 0.828,0 1.652,-0.341 2.245,-1.009 1.099,-1.239 0.986,-3.135 -0.253,-4.235 z M 105.229,74.2 c 0,18.059 -10.589,34.543 -24.693,39.359 v -13.506 c 0,-1.657 -1.343,-3 -3,-3 H 66.547 c -1.657,0 -3,1.343 -3,3 V 113.56 C 49.443,108.743 38.853,92.258 38.853,74.2 c 0,-25.378 20.793,-29.167 33.188,-29.167 12.395,0 33.188,3.789 33.188,29.167 z" inkscape:connector-curvature="0"></path> </g> <text xml:space="preserve" style="font-style:normal;font-weight:normal;font-size:2.89298844px;line-height:1.25;font-family:sans-serif;letter-spacing:0px;word-spacing:0px;fill:#000000;fill-opacity:1;stroke:none;stroke-width:0.21697414" x="31.538902" y="6.1108346" id="text11477"><tspan sodipodi:role="line" id="tspan11475" x="31.538902" y="6.1108346" style="stroke-width:0.21697414">snif</tspan></text> <path style="fill:none;stroke:#000000;stroke-width:0.80665696;stroke-linecap:butt;stroke-linejoin:miter;stroke-miterlimit:4;stroke-dasharray:none;stroke-opacity:1" d="m 18.030522,18.213054 c 0,0 -1.397387,1.388491 -2.235527,1.237226 -0.866304,-0.156326 -1.717821,-2.005847 -1.717821,-2.005847" id="path11479-2" inkscape:connector-curvature="0" sodipodi:nodetypes="cac"></path> <path style="fill:none;stroke:#000000;stroke-width:0.80665696;stroke-linecap:butt;stroke-linejoin:miter;stroke-miterlimit:4;stroke-dasharray:none;stroke-opacity:1" d="m 18.042968,20.31605 c 0,0 -1.387737,1.318553 -2.235527,1.237227 -1.24449,-0.11936 -2.876434,-2.406907 -2.876434,-2.406907" id="path11479-2-2" inkscape:connector-curvature="0" sodipodi:nodetypes="cac"></path> <path style="fill:none;stroke:#000000;stroke-width:0.80665696;stroke-linecap:butt;stroke-linejoin:miter;stroke-miterlimit:4;stroke-dasharray:none;stroke-opacity:1" d="m 30.360133,7.0261112 c 0,0 1.358621,1.4264414 1.189657,2.261198 -0.174619,0.8628058 -2.041739,1.6750008 -2.041739,1.6750008" id="path11479-2-9" inkscape:connector-curvature="0" sodipodi:nodetypes="cac"></path> <path style="fill:none;stroke:#000000;stroke-width:0.80665696;stroke-linecap:butt;stroke-linejoin:miter;stroke-miterlimit:4;stroke-dasharray:none;stroke-opacity:1" d="m 32.462931,7.0581539 c 0,0 1.288888,1.415321 1.189658,2.261198 -0.145656,1.2416931 -2.467227,2.8248721 -2.467227,2.8248721" id="path11479-2-2-7" inkscape:connector-curvature="0" sodipodi:nodetypes="cac"></path> <text xml:space="preserve" style="font-style:normal;font-weight:normal;font-size:2.07836938px;line-height:1.25;font-family:sans-serif;letter-spacing:0px;word-spacing:0px;fill:#000000;fill-opacity:1;stroke:none;stroke-width:0.15587768" x="35.720387" y="9.0922756" id="text11477-4"><tspan sodipodi:role="line" id="tspan11475-3" x="35.720387" y="9.0922756" style="stroke-width:0.15587768">snif</tspan></text> <text xml:space="preserve" style="font-style:normal;font-weight:normal;font-size:2.89298868px;line-height:1.25;font-family:sans-serif;letter-spacing:0px;word-spacing:0px;fill:#000000;fill-opacity:1;stroke:none;stroke-width:0.21697414" x="6.2010684" y="21.495079" id="text11477-5"><tspan sodipodi:role="line" id="tspan11475-6" x="6.2010684" y="21.495079" style="stroke-width:0.21697414">snif</tspan></text> <text xml:space="preserve" style="font-style:normal;font-weight:normal;font-size:1.77288699px;line-height:1.25;font-family:sans-serif;letter-spacing:0px;word-spacing:0px;fill:#000000;fill-opacity:1;stroke:none;stroke-width:0.13296653" x="11.505566" y="24.443649" id="text11477-1"><tspan sodipodi:role="line" id="tspan11475-4" x="11.505566" y="24.443649" style="stroke-width:0.13296653">snif</tspan></text> <path style="fill:#808080;stroke:#999999;stroke-width:0.40332851;stroke-linecap:butt;stroke-linejoin:miter;stroke-miterlimit:4;stroke-dasharray:0.40332851, 0.80665694;stroke-dashoffset:0;stroke-opacity:1;marker-end:url(#Arrow2Mend)" d="M 25.328887,15.810514 36.042308,32.573847" id="path11567" inkscape:connector-curvature="0" sodipodi:nodetypes="cc"></path> <path style="fill:#808080;stroke:#999999;stroke-width:0.40332851;stroke-linecap:butt;stroke-linejoin:miter;stroke-miterlimit:4;stroke-dasharray:0.40332851, 0.80665694;stroke-dashoffset:0;stroke-opacity:1;marker-end:url(#marker11645)" d="m 25.265869,15.873532 18.023753,3.781199" id="path11567-0" inkscape:connector-curvature="0" sodipodi:nodetypes="cc"></path> <path style="fill:#808080;stroke:#999999;stroke-width:0.40332851;stroke-linecap:butt;stroke-linejoin:miter;stroke-miterlimit:4;stroke-dasharray:0.40332851, 0.80665694;stroke-dashoffset:0;stroke-opacity:1;marker-end:url(#marker11715)" d="M 25.265869,15.810507 21.484678,31.817604" id="path11567-0-3" inkscape:connector-curvature="0" sodipodi:nodetypes="cc"></path> </g>
</svg>
