<?xml version="1.0" encoding="UTF-8" standalone="no"?>
<!-- Created with Inkscape (http://www.inkscape.org/) -->

<svg
   xmlns:dc="http://purl.org/dc/elements/1.1/"
   xmlns:cc="http://creativecommons.org/ns#"
   xmlns:rdf="http://www.w3.org/1999/02/22-rdf-syntax-ns#"
   xmlns:svg="http://www.w3.org/2000/svg"
   xmlns="http://www.w3.org/2000/svg"
   xmlns:sodipodi="http://sodipodi.sourceforge.net/DTD/sodipodi-0.dtd"
   xmlns:inkscape="http://www.inkscape.org/namespaces/inkscape"
   width="235.9456"
   height="291.44196"
   viewBox="0 0 235.9456 291.44196"
   version="1.1"
   id="svg16993"
   inkscape:version="0.92.2 (unknown)"
   sodipodi:docname="parametre.svg">
  <defs
     id="defs16987" />
  <sodipodi:namedview
     id="base"
     pagecolor="#ffffff"
     bordercolor="#666666"
     borderopacity="1.0"
     inkscape:pageopacity="0.0"
     inkscape:pageshadow="2"
     inkscape:zoom="1.4"
     inkscape:cx="3.6763292"
     inkscape:cy="65.237679"
     inkscape:document-units="mm"
     inkscape:current-layer="layer1"
     showgrid="false"
     fit-margin-top="0"
     fit-margin-left="0"
     fit-margin-right="0"
     fit-margin-bottom="0"
     inkscape:window-width="1920"
     inkscape:window-height="1023"
     inkscape:window-x="0"
     inkscape:window-y="27"
     inkscape:window-maximized="1" />
  <metadata
     id="metadata16990">
    <rdf:rdf>
      <cc:work
         rdf:about="">
        <dc:format>image/svg+xml</dc:format>
        <dc:type
           rdf:resource="http://purl.org/dc/dcmitype/StillImage" />
        <dc:title />
      </cc:work>
    </rdf:rdf>
    <rdf:RDF>
      <cc:Work
         rdf:about="">
        <dc:format>image/svg+xml</dc:format>
        <dc:type
           rdf:resource="http://purl.org/dc/dcmitype/StillImage" />
        <dc:title></dc:title>
      </cc:Work>
    </rdf:RDF>
  </metadata>
  <g
     inkscape:label="Calque 1"
     inkscape:groupmode="layer"
     id="layer1"
     transform="translate(48.084999,-3.1116995)">
    <g
       id="g1004"
       transform="translate(-5.2694806,3.8146972e-6)">
      <path
         inkscape:connector-curvature="0"
         id="path16611"
         d="M 12.901713,22.379161 V 52.724986"
         style="fill:none;stroke:#000000;stroke-width:1.51729083px;stroke-linecap:butt;stroke-linejoin:miter;stroke-opacity:1" />
      <path
         sodipodi:nodetypes="cc"
         inkscape:connector-curvature="0"
         id="path16613"
         d="m 12.901713,37.552067 166.901987,6e-6"
         style="fill:none;stroke:#000000;stroke-width:1.51729083px;stroke-linecap:butt;stroke-linejoin:miter;stroke-opacity:1" />
      <path
         inkscape:connector-curvature="0"
         id="path16615"
         d="M 179.8037,22.379161 V 52.724986"
         style="fill:none;stroke:#000000;stroke-width:1.51729083px;stroke-linecap:butt;stroke-linejoin:miter;stroke-opacity:1" />
      <path
         inkscape:connector-curvature="0"
         id="path16617"
         d="M 28.07462,29.965617 V 45.138524"
         style="fill:none;stroke:#000000;stroke-width:1.51729083px;stroke-linecap:butt;stroke-linejoin:miter;stroke-opacity:1" />
      <path
         inkscape:connector-curvature="0"
         id="path16617-3"
         d="M 43.247532,29.965617 V 45.138524"
         style="fill:none;stroke:#000000;stroke-width:1.51729083px;stroke-linecap:butt;stroke-linejoin:miter;stroke-opacity:1" />
      <path
         inkscape:connector-curvature="0"
         id="path16617-3-6"
         d="M 58.420439,29.965617 V 45.138524"
         style="fill:none;stroke:#000000;stroke-width:1.51729083px;stroke-linecap:butt;stroke-linejoin:miter;stroke-opacity:1" />
      <path
         inkscape:connector-curvature="0"
         id="path16617-3-1"
         d="M 73.593345,29.965617 V 45.138524"
         style="fill:none;stroke:#000000;stroke-width:1.51729083px;stroke-linecap:butt;stroke-linejoin:miter;stroke-opacity:1" />
      <path
         inkscape:connector-curvature="0"
         id="path16617-3-2"
         d="M 88.766258,29.965617 V 45.138524"
         style="fill:none;stroke:#000000;stroke-width:1.51729083px;stroke-linecap:butt;stroke-linejoin:miter;stroke-opacity:1" />
      <path
         inkscape:connector-curvature="0"
         id="path16617-3-9"
         d="M 103.93916,29.965617 V 45.138524"
         style="fill:none;stroke:#000000;stroke-width:1.51729083px;stroke-linecap:butt;stroke-linejoin:miter;stroke-opacity:1" />
      <path
         inkscape:connector-curvature="0"
         id="path16617-3-9-3"
         d="M 119.11207,29.965617 V 45.138524"
         style="fill:none;stroke:#000000;stroke-width:1.51729083px;stroke-linecap:butt;stroke-linejoin:miter;stroke-opacity:1" />
      <path
         inkscape:connector-curvature="0"
         id="path16617-3-9-1"
         d="M 134.28498,29.965617 V 45.138524"
         style="fill:none;stroke:#000000;stroke-width:1.51729083px;stroke-linecap:butt;stroke-linejoin:miter;stroke-opacity:1" />
      <path
         inkscape:connector-curvature="0"
         id="path16617-3-9-9"
         d="M 149.45789,29.965617 V 45.138524"
         style="fill:none;stroke:#000000;stroke-width:1.51729083px;stroke-linecap:butt;stroke-linejoin:miter;stroke-opacity:1" />
      <path
         inkscape:connector-curvature="0"
         id="path16617-3-9-4"
         d="M 164.6308,29.965617 V 45.138524"
         style="fill:none;stroke:#000000;stroke-width:1.51729083px;stroke-linecap:butt;stroke-linejoin:miter;stroke-opacity:1" />
      <text
         id="text9526-3-40-1"
         y="16.18008"
         x="7.3969121"
         style="font-style:normal;font-weight:normal;font-size:60.69163895px;line-height:2500%;font-family:sans-serif;letter-spacing:0px;word-spacing:0px;fill:#000000;fill-opacity:1;stroke:none;stroke-width:1.51729083px;stroke-linecap:butt;stroke-linejoin:miter;stroke-opacity:1"
         xml:space="preserve"><tspan
           id="tspan9528-3-4-5"
           style="font-style:normal;font-variant:normal;font-weight:normal;font-stretch:normal;font-size:18.20749092px;line-height:2500%;font-family:Arial;-inkscape-font-specification:'Arial, Normal';font-variant-ligatures:normal;font-variant-caps:normal;font-variant-numeric:normal;font-feature-settings:normal;text-align:start;writing-mode:lr-tb;text-anchor:start;stroke-width:1.51729083px"
           y="16.18008"
           x="7.3969121"
           sodipodi:role="line">0</tspan></text>
      <text
         id="text9526-3-40-1-6"
         y="15.638236"
         x="174.29893"
         style="font-style:normal;font-weight:normal;font-size:60.69163895px;line-height:2500%;font-family:sans-serif;letter-spacing:0px;word-spacing:0px;fill:#000000;fill-opacity:1;stroke:none;stroke-width:1.51729083px;stroke-linecap:butt;stroke-linejoin:miter;stroke-opacity:1"
         xml:space="preserve"><tspan
           id="tspan9528-3-4-5-5"
           style="font-style:normal;font-variant:normal;font-weight:normal;font-stretch:normal;font-size:18.20749092px;line-height:2500%;font-family:Arial;-inkscape-font-specification:'Arial, Normal';font-variant-ligatures:normal;font-variant-caps:normal;font-variant-numeric:normal;font-feature-settings:normal;text-align:start;writing-mode:lr-tb;text-anchor:start;stroke-width:1.51729083px"
           y="15.638236"
           x="174.29893"
           sodipodi:role="line">1</tspan></text>
      <path
         inkscape:connector-curvature="0"
         id="path16873"
         d="m 179.8037,22.379161 h -7.58645"
         style="fill:none;stroke:#000000;stroke-width:1.51729083px;stroke-linecap:butt;stroke-linejoin:miter;stroke-opacity:1" />
      <path
         inkscape:connector-curvature="0"
         id="path16875"
         d="m 179.8037,52.724986 h -7.58645"
         style="fill:none;stroke:#000000;stroke-width:1.51729083px;stroke-linecap:butt;stroke-linejoin:miter;stroke-opacity:1" />
      <path
         inkscape:connector-curvature="0"
         id="path16877"
         d="M 12.901713,22.379161 H 5.3152572"
         style="fill:none;stroke:#000000;stroke-width:1.51729083px;stroke-linecap:butt;stroke-linejoin:miter;stroke-opacity:1" />
      <path
         inkscape:connector-curvature="0"
         id="path16881"
         d="M 12.901713,52.724986 H 5.3152572"
         style="fill:none;stroke:#000000;stroke-width:1.51729083px;stroke-linecap:butt;stroke-linejoin:miter;stroke-opacity:1" />
    </g>
    <g
       id="g1027"
       transform="translate(40.983768,-44.298902)">
      <path
         inkscape:connector-curvature="0"
         id="path16611-3"
         d="m -33.351534,132.40556 v 30.34582"
         style="fill:none;stroke:#000000;stroke-width:1.51729083px;stroke-linecap:butt;stroke-linejoin:miter;stroke-opacity:1" />
      <path
         sodipodi:nodetypes="cc"
         inkscape:connector-curvature="0"
         id="path16613-6"
         d="M -33.351534,147.57847 H 133.55045"
         style="fill:none;stroke:#000000;stroke-width:1.51729083px;stroke-linecap:butt;stroke-linejoin:miter;stroke-opacity:1" />
      <path
         inkscape:connector-curvature="0"
         id="path16615-7"
         d="m 133.55045,132.40556 v 30.34582"
         style="fill:none;stroke:#000000;stroke-width:1.51729083px;stroke-linecap:butt;stroke-linejoin:miter;stroke-opacity:1" />
      <path
         inkscape:connector-curvature="0"
         id="path16617-5"
         d="m -18.178627,139.99202 v 15.1729"
         style="fill:none;stroke:#000000;stroke-width:1.51729083px;stroke-linecap:butt;stroke-linejoin:miter;stroke-opacity:1" />
      <path
         inkscape:connector-curvature="0"
         id="path16617-3-3"
         d="m -3.0057148,139.99202 v 15.1729"
         style="fill:none;stroke:#000000;stroke-width:1.51729083px;stroke-linecap:butt;stroke-linejoin:miter;stroke-opacity:1" />
      <path
         inkscape:connector-curvature="0"
         id="path16617-3-6-5"
         d="m 12.167192,139.99202 v 15.1729"
         style="fill:none;stroke:#000000;stroke-width:1.51729083px;stroke-linecap:butt;stroke-linejoin:miter;stroke-opacity:1" />
      <path
         inkscape:connector-curvature="0"
         id="path16617-3-1-6"
         d="m 27.340098,139.99202 v 15.1729"
         style="fill:none;stroke:#000000;stroke-width:1.51729083px;stroke-linecap:butt;stroke-linejoin:miter;stroke-opacity:1" />
      <path
         inkscape:connector-curvature="0"
         id="path16617-3-2-2"
         d="m 42.513011,139.99202 v 15.1729"
         style="fill:none;stroke:#000000;stroke-width:1.51729083px;stroke-linecap:butt;stroke-linejoin:miter;stroke-opacity:1" />
      <path
         inkscape:connector-curvature="0"
         id="path16617-3-9-91"
         d="m 57.685913,139.99202 v 15.1729"
         style="fill:none;stroke:#000000;stroke-width:1.51729083px;stroke-linecap:butt;stroke-linejoin:miter;stroke-opacity:1" />
      <path
         inkscape:connector-curvature="0"
         id="path16617-3-9-3-2"
         d="m 72.858823,139.99202 v 15.1729"
         style="fill:none;stroke:#000000;stroke-width:1.51729083px;stroke-linecap:butt;stroke-linejoin:miter;stroke-opacity:1" />
      <path
         inkscape:connector-curvature="0"
         id="path16617-3-9-1-7"
         d="m 88.031733,139.99202 v 15.1729"
         style="fill:none;stroke:#000000;stroke-width:1.51729083px;stroke-linecap:butt;stroke-linejoin:miter;stroke-opacity:1" />
      <path
         inkscape:connector-curvature="0"
         id="path16617-3-9-9-0"
         d="m 103.20464,139.99202 v 15.1729"
         style="fill:none;stroke:#000000;stroke-width:1.51729083px;stroke-linecap:butt;stroke-linejoin:miter;stroke-opacity:1" />
      <path
         inkscape:connector-curvature="0"
         id="path16617-3-9-4-9"
         d="m 118.37755,139.99202 v 15.1729"
         style="fill:none;stroke:#000000;stroke-width:1.51729083px;stroke-linecap:butt;stroke-linejoin:miter;stroke-opacity:1" />
      <text
         id="text9526-3-40-1-3"
         y="126.20648"
         x="-38.856335"
         style="font-style:normal;font-weight:normal;font-size:60.69163895px;line-height:2500%;font-family:sans-serif;letter-spacing:0px;word-spacing:0px;fill:#000000;fill-opacity:1;stroke:none;stroke-width:1.51729083px;stroke-linecap:butt;stroke-linejoin:miter;stroke-opacity:1"
         xml:space="preserve"><tspan
           id="tspan9528-3-4-5-6"
           style="font-style:normal;font-variant:normal;font-weight:normal;font-stretch:normal;font-size:18.20749092px;line-height:2500%;font-family:Arial;-inkscape-font-specification:'Arial, Normal';font-variant-ligatures:normal;font-variant-caps:normal;font-variant-numeric:normal;font-feature-settings:normal;text-align:start;writing-mode:lr-tb;text-anchor:start;stroke-width:1.51729083px"
           y="126.20648"
           x="-38.856335"
           sodipodi:role="line">0</tspan></text>
      <text
         id="text9526-3-40-1-6-0"
         y="125.66463"
         x="128.04568"
         style="font-style:normal;font-weight:normal;font-size:60.69163895px;line-height:2500%;font-family:sans-serif;letter-spacing:0px;word-spacing:0px;fill:#000000;fill-opacity:1;stroke:none;stroke-width:1.51729083px;stroke-linecap:butt;stroke-linejoin:miter;stroke-opacity:1"
         xml:space="preserve"><tspan
           id="tspan9528-3-4-5-5-6"
           style="font-style:normal;font-variant:normal;font-weight:normal;font-stretch:normal;font-size:18.20749092px;line-height:2500%;font-family:Arial;-inkscape-font-specification:'Arial, Normal';font-variant-ligatures:normal;font-variant-caps:normal;font-variant-numeric:normal;font-feature-settings:normal;text-align:start;writing-mode:lr-tb;text-anchor:start;stroke-width:1.51729083px"
           y="125.66463"
           x="128.04568"
           sodipodi:role="line">1</tspan></text>
      <path
         inkscape:connector-curvature="0"
         id="path16873-2"
         d="M 133.55045,132.40556 H 125.964"
         style="fill:none;stroke:#000000;stroke-width:1.51729083px;stroke-linecap:butt;stroke-linejoin:miter;stroke-opacity:1" />
      <path
         inkscape:connector-curvature="0"
         id="path16875-6"
         d="M 133.55045,162.75138 H 125.964"
         style="fill:none;stroke:#000000;stroke-width:1.51729083px;stroke-linecap:butt;stroke-linejoin:miter;stroke-opacity:1" />
      <path
         inkscape:connector-curvature="0"
         id="path16877-1"
         d="M -33.351534,132.40556 H -40.93799"
         style="fill:none;stroke:#000000;stroke-width:1.51729083px;stroke-linecap:butt;stroke-linejoin:miter;stroke-opacity:1" />
      <path
         inkscape:connector-curvature="0"
         id="path16881-8"
         d="M -33.351534,162.75138 H -40.93799"
         style="fill:none;stroke:#000000;stroke-width:1.51729083px;stroke-linecap:butt;stroke-linejoin:miter;stroke-opacity:1" />
    </g>
    <g
       id="g1050"
       transform="translate(46.698046,-48.571428)">
      <path
         inkscape:connector-curvature="0"
         id="path16611-7"
         d="m -39.06582,202.40556 v 30.34582"
         style="fill:none;stroke:#000000;stroke-width:1.51729083px;stroke-linecap:butt;stroke-linejoin:miter;stroke-opacity:1" />
      <path
         sodipodi:nodetypes="cc"
         inkscape:connector-curvature="0"
         id="path16613-9"
         d="M -39.06582,217.57847 H 127.83617"
         style="fill:none;stroke:#000000;stroke-width:1.51729083px;stroke-linecap:butt;stroke-linejoin:miter;stroke-opacity:1" />
      <path
         inkscape:connector-curvature="0"
         id="path16615-2"
         d="m 127.83617,202.40556 v 30.34582"
         style="fill:none;stroke:#000000;stroke-width:1.51729083px;stroke-linecap:butt;stroke-linejoin:miter;stroke-opacity:1" />
      <path
         inkscape:connector-curvature="0"
         id="path16617-0"
         d="m -23.892913,209.99202 v 15.1729"
         style="fill:none;stroke:#000000;stroke-width:1.51729083px;stroke-linecap:butt;stroke-linejoin:miter;stroke-opacity:1" />
      <path
         inkscape:connector-curvature="0"
         id="path16617-3-23"
         d="m -8.7200005,209.99202 v 15.1729"
         style="fill:none;stroke:#000000;stroke-width:1.51729083px;stroke-linecap:butt;stroke-linejoin:miter;stroke-opacity:1" />
      <path
         inkscape:connector-curvature="0"
         id="path16617-3-6-7"
         d="m 6.4529065,209.99202 v 15.1729"
         style="fill:none;stroke:#000000;stroke-width:1.51729083px;stroke-linecap:butt;stroke-linejoin:miter;stroke-opacity:1" />
      <path
         inkscape:connector-curvature="0"
         id="path16617-3-1-5"
         d="m 21.625812,209.99202 v 15.1729"
         style="fill:none;stroke:#000000;stroke-width:1.51729083px;stroke-linecap:butt;stroke-linejoin:miter;stroke-opacity:1" />
      <path
         inkscape:connector-curvature="0"
         id="path16617-3-2-9"
         d="m 36.798725,209.99202 v 15.1729"
         style="fill:none;stroke:#000000;stroke-width:1.51729083px;stroke-linecap:butt;stroke-linejoin:miter;stroke-opacity:1" />
      <path
         inkscape:connector-curvature="0"
         id="path16617-3-9-2"
         d="m 51.971627,209.99202 v 15.1729"
         style="fill:none;stroke:#000000;stroke-width:1.51729083px;stroke-linecap:butt;stroke-linejoin:miter;stroke-opacity:1" />
      <path
         inkscape:connector-curvature="0"
         id="path16617-3-9-3-28"
         d="m 67.144537,209.99202 v 15.1729"
         style="fill:none;stroke:#000000;stroke-width:1.51729083px;stroke-linecap:butt;stroke-linejoin:miter;stroke-opacity:1" />
      <path
         inkscape:connector-curvature="0"
         id="path16617-3-9-1-9"
         d="m 82.317447,209.99202 v 15.1729"
         style="fill:none;stroke:#000000;stroke-width:1.51729083px;stroke-linecap:butt;stroke-linejoin:miter;stroke-opacity:1" />
      <path
         inkscape:connector-curvature="0"
         id="path16617-3-9-9-7"
         d="m 97.490357,209.99202 v 15.1729"
         style="fill:none;stroke:#000000;stroke-width:1.51729083px;stroke-linecap:butt;stroke-linejoin:miter;stroke-opacity:1" />
      <path
         inkscape:connector-curvature="0"
         id="path16617-3-9-4-3"
         d="m 112.66327,209.99202 v 15.1729"
         style="fill:none;stroke:#000000;stroke-width:1.51729083px;stroke-linecap:butt;stroke-linejoin:miter;stroke-opacity:1" />
      <text
         id="text9526-3-40-1-61"
         y="196.20648"
         x="-44.570621"
         style="font-style:normal;font-weight:normal;font-size:60.69163895px;line-height:2500%;font-family:sans-serif;letter-spacing:0px;word-spacing:0px;fill:#000000;fill-opacity:1;stroke:none;stroke-width:1.51729083px;stroke-linecap:butt;stroke-linejoin:miter;stroke-opacity:1"
         xml:space="preserve"><tspan
           id="tspan9528-3-4-5-2"
           style="font-style:normal;font-variant:normal;font-weight:normal;font-stretch:normal;font-size:18.20749092px;line-height:2500%;font-family:Arial;-inkscape-font-specification:'Arial, Normal';font-variant-ligatures:normal;font-variant-caps:normal;font-variant-numeric:normal;font-feature-settings:normal;text-align:start;writing-mode:lr-tb;text-anchor:start;stroke-width:1.51729083px"
           y="196.20648"
           x="-44.570621"
           sodipodi:role="line">0</tspan></text>
      <text
         id="text9526-3-40-1-6-9"
         y="195.66464"
         x="122.33141"
         style="font-style:normal;font-weight:normal;font-size:60.69163895px;line-height:2500%;font-family:sans-serif;letter-spacing:0px;word-spacing:0px;fill:#000000;fill-opacity:1;stroke:none;stroke-width:1.51729083px;stroke-linecap:butt;stroke-linejoin:miter;stroke-opacity:1"
         xml:space="preserve"><tspan
           id="tspan9528-3-4-5-5-3"
           style="font-style:normal;font-variant:normal;font-weight:normal;font-stretch:normal;font-size:18.20749092px;line-height:2500%;font-family:Arial;-inkscape-font-specification:'Arial, Normal';font-variant-ligatures:normal;font-variant-caps:normal;font-variant-numeric:normal;font-feature-settings:normal;text-align:start;writing-mode:lr-tb;text-anchor:start;stroke-width:1.51729083px"
           y="195.66464"
           x="122.33141"
           sodipodi:role="line">1</tspan></text>
      <path
         inkscape:connector-curvature="0"
         id="path16873-1"
         d="m 127.83617,202.40556 h -7.58645"
         style="fill:none;stroke:#000000;stroke-width:1.51729083px;stroke-linecap:butt;stroke-linejoin:miter;stroke-opacity:1" />
      <path
         inkscape:connector-curvature="0"
         id="path16875-9"
         d="m 127.83617,232.75138 h -7.58645"
         style="fill:none;stroke:#000000;stroke-width:1.51729083px;stroke-linecap:butt;stroke-linejoin:miter;stroke-opacity:1" />
      <path
         inkscape:connector-curvature="0"
         id="path16877-4"
         d="m -39.06582,202.40556 h -7.586455"
         style="fill:none;stroke:#000000;stroke-width:1.51729083px;stroke-linecap:butt;stroke-linejoin:miter;stroke-opacity:1" />
      <path
         inkscape:connector-curvature="0"
         id="path16881-7"
         d="m -39.06582,232.75138 h -7.586455"
         style="fill:none;stroke:#000000;stroke-width:1.51729083px;stroke-linecap:butt;stroke-linejoin:miter;stroke-opacity:1" />
    </g>
    <text
       xml:space="preserve"
       style="font-style:normal;font-variant:normal;font-weight:normal;font-stretch:normal;font-size:24px;line-height:1.25;font-family:'Apple Braille';-inkscape-font-specification:'Apple Braille';letter-spacing:0px;word-spacing:0px;fill:#000000;fill-opacity:1;stroke:none"
       x="-47.733437"
       y="37.045715"
       id="text1054"><tspan
         sodipodi:role="line"
         id="tspan1052"
         x="-47.733437"
         y="37.045715">P1</tspan></text>
    <text
       xml:space="preserve"
       style="font-style:normal;font-variant:normal;font-weight:normal;font-stretch:normal;font-size:24px;line-height:1.25;font-family:'Apple Braille';-inkscape-font-specification:'Apple Braille';letter-spacing:0px;word-spacing:0px;fill:#000000;fill-opacity:1;stroke:none"
       x="-47.639687"
       y="102.9314"
       id="text1058"><tspan
         sodipodi:role="line"
         id="tspan1056"
         x="-47.639687"
         y="102.9314">P2</tspan></text>
    <text
       xml:space="preserve"
       style="font-style:normal;font-variant:normal;font-weight:normal;font-stretch:normal;font-size:24px;line-height:1.25;font-family:'Apple Braille';-inkscape-font-specification:'Apple Braille';letter-spacing:0px;word-spacing:0px;fill:#000000;fill-opacity:1;stroke:none"
       x="-47.879921"
       y="168.48897"
       id="text1062"><tspan
         sodipodi:role="line"
         id="tspan1060"
         x="-47.879921"
         y="168.48897">P3</tspan></text>
    <g
       transform="matrix(0.11427856,0,0,0.11427856,3.7586945,202.83644)"
       id="g1070">
      <g
         id="g1068">
        <path
           inkscape:connector-curvature="0"
           d="m 475.084,131.992 c -0.021,-2.521 -0.828,-5.021 -2.562,-6.993 L 366.324,3.689 C 366.293,3.654 366.262,3.644 366.24,3.612 365.607,2.906 364.869,2.328 364.089,1.809 363.857,1.664 363.625,1.524 363.382,1.387 362.707,1.02 361.99,0.722 361.252,0.501 361.051,0.438 360.872,0.356 360.672,0.304 359.87,0.114 359.037,0 358.193,0 H 97.2 C 85.282,0 75.6,9.693 75.6,21.601 v 507.6 c 0,11.907 9.682,21.601 21.6,21.601 h 356.4 c 11.908,0 21.601,-9.693 21.601,-21.601 V 133.202 c -0.001,-0.411 -0.064,-0.809 -0.117,-1.21 z m -293.983,363.68 c 8.931,0 18.845,-1.94 24.677,-4.271 l 4.472,23.129 c -5.444,2.722 -17.684,5.643 -33.626,5.643 -45.291,0 -68.618,-28.191 -68.618,-65.506 0,-44.709 31.88,-69.589 71.529,-69.589 15.356,0 27.021,3.106 32.276,5.833 l -6.033,23.514 c -6.02,-2.525 -14.386,-4.846 -24.877,-4.846 -23.517,0 -41.784,14.186 -41.784,43.331 -10e-4,26.245 15.545,42.762 41.984,42.762 z m 80.675,24.5 c -14.964,0 -29.742,-3.892 -37.125,-7.973 l 6.02,-24.49 c 7.976,4.082 20.218,8.163 32.854,8.163 13.605,0 20.798,-5.643 20.798,-14.196 0,-8.163 -6.217,-12.824 -21.963,-18.457 -21.766,-7.583 -35.955,-19.627 -35.955,-38.675 0,-22.359 18.658,-39.467 49.565,-39.467 14.771,0 25.66,3.106 33.428,6.613 l -6.602,23.909 c -5.258,-2.531 -14.576,-6.223 -27.412,-6.223 -12.825,0 -19.045,5.833 -19.045,12.636 0,8.369 7.38,12.055 24.303,18.468 23.124,8.559 34.014,20.598 34.014,39.065 -0.011,21.959 -16.918,40.627 -52.88,40.627 z M 400.18,518.216 H 365.586 L 323.6,387.213 h 32.463 L 372,442.616 c 4.472,15.546 8.554,30.512 11.665,46.844 h 0.58 c 3.301,-15.747 7.383,-31.298 11.854,-46.259 l 16.717,-55.982 h 31.493 z M 97.2,366.752 V 21.601 h 250.192 v 110.521 c 0,5.962 4.842,10.8 10.801,10.8 H 453.6 V 366.759 H 97.2 Z"
           id="path1064" />
        <path
           inkscape:connector-curvature="0"
           d="m 377.188,170.058 h -66.149 -2.31 -66.15 v 0 h -65 v 29.223 2.193 27.032 2.312 26.924 2.302 29.226 h 68.462 v 0 h 131.27 v -92.688 h -0.122 V 170.058 Z M 243.728,286.971 H 179.89 v -26.927 h 63.837 v 26.927 z m 0,-29.229 H 179.89 v -26.924 h 63.837 v 26.924 z m 0,-29.236 H 179.89 v -26.913 h 62.688 1.149 v 26.913 z m 1.163,-29.225 v -26.913 h 63.838 v 26.913 H 246.04 Z m 129.713,87.288 H 349.397 V 209.471 H 332.09 v 77.098 h -14.418 v -61.13 h -17.308 v 61.13 h -12.698 v -45.362 h -17.31 v 45.362 h -24.321 v -26.525 -2.302 -26.924 -2.312 -26.913 h 62.688 2.315 63.565 v 84.976 z m 0.274,-89.988 h -0.274 v 2.7 h -63.565 v -26.913 h 63.84 v 24.213 z"
           id="path1066" />
      </g>
    </g>
    <g
       id="g1072"
       transform="matrix(0.27508304,0,0,0.27508304,-187.68558,462.83644)" />
    <g
       id="g1074"
       transform="matrix(0.27508304,0,0,0.27508304,-187.68558,462.83644)" />
    <g
       id="g1076"
       transform="matrix(0.27508304,0,0,0.27508304,-187.68558,462.83644)" />
    <g
       id="g1078"
       transform="matrix(0.27508304,0,0,0.27508304,-187.68558,462.83644)" />
    <g
       id="g1080"
       transform="matrix(0.27508304,0,0,0.27508304,-187.68558,462.83644)" />
    <g
       id="g1082"
       transform="matrix(0.27508304,0,0,0.27508304,-187.68558,462.83644)" />
    <g
       id="g1084"
       transform="matrix(0.27508304,0,0,0.27508304,-187.68558,462.83644)" />
    <g
       id="g1086"
       transform="matrix(0.27508304,0,0,0.27508304,-187.68558,462.83644)" />
    <g
       id="g1088"
       transform="matrix(0.27508304,0,0,0.27508304,-187.68558,462.83644)" />
    <g
       id="g1090"
       transform="matrix(0.27508304,0,0,0.27508304,-187.68558,462.83644)" />
    <g
       id="g1092"
       transform="matrix(0.27508304,0,0,0.27508304,-187.68558,462.83644)" />
    <g
       id="g1094"
       transform="matrix(0.27508304,0,0,0.27508304,-187.68558,462.83644)" />
    <g
       id="g1096"
       transform="matrix(0.27508304,0,0,0.27508304,-187.68558,462.83644)" />
    <g
       id="g1098"
       transform="matrix(0.27508304,0,0,0.27508304,-187.68558,462.83644)" />
    <g
       id="g1100"
       transform="matrix(0.27508304,0,0,0.27508304,-187.68558,462.83644)" />
    <text
       id="text1204"
       y="221.89548"
       x="-82.541878"
       style="font-style:normal;font-variant:normal;font-weight:normal;font-stretch:normal;font-size:24px;line-height:1.25;font-family:'Apple Braille';-inkscape-font-specification:'Apple Braille';letter-spacing:0px;word-spacing:0px;fill:#000000;fill-opacity:1;stroke:none;stroke-width:1"
       xml:space="preserve"><tspan
         style="stroke-width:1"
         y="242.34886"
         x="-82.541878"
         id="tspan1202"
         sodipodi:role="line"></tspan></text>
    <text
       xml:space="preserve"
       style="font-style:normal;font-variant:normal;font-weight:normal;font-stretch:normal;font-size:24px;line-height:1.25;font-family:'Apple Braille';-inkscape-font-specification:'Apple Braille';letter-spacing:0px;word-spacing:0px;fill:#000000;fill-opacity:1;stroke:none"
       x="-49.432655"
       y="261.18121"
       id="text1208"><tspan
         sodipodi:role="line"
         id="tspan1206"
         x="-49.432655"
         y="261.18121">O1</tspan></text>
    <text
       xml:space="preserve"
       style="font-style:normal;font-variant:normal;font-weight:normal;font-stretch:normal;font-size:18.66666603px;line-height:1.25;font-family:'Apple Braille';-inkscape-font-specification:'Apple Braille';letter-spacing:0px;word-spacing:0px;fill:#000000;fill-opacity:1;stroke:none"
       x="12.575793"
       y="286.89551"
       id="text1212"><tspan
         sodipodi:role="line"
         id="tspan1210"
         x="12.575793"
         y="286.89551"
         style="font-size:14.66666698px">500ko</tspan></text>
    <g
       transform="matrix(0.12959203,0,0,0.12959203,107.43751,202.57117)"
       id="g1200">
      <g
         id="g1134">
        <g
           id="g1132">
          <path
             inkscape:connector-curvature="0"
             d="M 501.801,466.153 H 61.144 l 55.608,-61.873 c 4.883,2.589 10.446,4.062 16.348,4.062 13.586,0 25.382,-7.781 31.188,-19.115 l 56.818,14.347 c 1.503,17.938 16.574,32.078 34.895,32.078 19.314,0 35.027,-15.713 35.027,-35.027 0,-10.651 -4.784,-20.201 -12.31,-26.63 l 46.335,-110.741 32.997,84.143 c -7.887,6.429 -12.936,16.213 -12.936,27.157 0,19.314 15.714,35.027 35.028,35.027 19.314,0 35.027,-15.713 35.027,-35.027 0,-3.946 -0.666,-7.738 -1.875,-11.28 l 40.474,-40.476 c 3.983,-3.983 3.983,-10.441 0,-14.425 -3.983,-3.982 -10.441,-3.982 -14.424,0 l -38.182,38.182 c -5.859,-4.411 -13.141,-7.029 -21.023,-7.029 -1.082,0 -2.151,0.056 -3.209,0.153 l -40.571,-103.457 40.757,-97.409 c 0.997,0.086 2.003,0.139 3.022,0.139 16.219,0 29.893,-11.081 33.861,-26.07 h 64.21 c 5.633,0 10.199,-4.567 10.199,-10.199 0,-5.632 -4.566,-10.199 -10.199,-10.199 h -64.971 c -4.753,-13.712 -17.79,-23.588 -33.099,-23.588 -19.314,0 -35.028,15.713 -35.028,35.028 0,11.011 5.112,20.845 13.081,27.272 l -32.53,77.746 -47.52,-121.177 c 7.14,-6.417 11.641,-15.717 11.641,-26.051 0,-19.315 -15.714,-35.028 -35.028,-35.028 -19.314,0 -35.025,15.713 -35.025,35.028 0,8.356 2.946,16.036 7.847,22.063 l -84.08,127.394 c -3.644,-1.288 -7.561,-1.996 -11.64,-1.996 -4.185,0 -8.199,0.74 -11.922,2.092 L 47.709,116.232 V 12.062 C 47.709,6.43 43.143,1.863 37.51,1.863 c -5.633,0 -10.2,4.567 -10.2,10.199 V 112.349 H 10.199 C 4.566,112.348 0,116.916 0,122.548 c 0,5.632 4.566,10.199 10.199,10.199 H 27.311 V 235.249 H 10.199 C 4.566,235.249 0,239.816 0,245.448 c 0,5.632 4.566,10.199 10.199,10.199 H 27.311 V 360.633 H 10.199 C 4.566,360.633 0,365.2 0,370.832 c 0,5.632 4.566,10.199 10.199,10.199 h 17.112 v 95.321 c 0,5.632 4.566,10.199 10.199,10.199 h 87.873 v 13.387 c 0,5.632 4.566,10.199 10.199,10.199 5.633,0 10.199,-4.567 10.199,-10.199 v -13.387 h 102.502 v 13.387 c 0,5.632 4.566,10.199 10.199,10.199 5.633,0 10.199,-4.567 10.199,-10.199 v -13.387 h 104.984 v 13.387 c 0,5.632 4.566,10.199 10.199,10.199 5.633,0 10.199,-4.567 10.199,-10.199 v -13.387 h 107.735 c 5.633,0 10.199,-4.567 10.199,-10.199 0,-5.632 -4.563,-10.199 -10.196,-10.199 z M 380.143,359.926 c 8.065,0 14.629,6.563 14.629,14.63 0,8.065 -6.563,14.629 -14.629,14.629 -8.067,0 -14.63,-6.563 -14.63,-14.629 0,-8.067 6.563,-14.63 14.63,-14.63 z M 380.142,89.297 c 8.067,0 14.629,6.563 14.629,14.63 0,8.067 -6.563,14.63 -14.629,14.63 -8.067,0 -14.63,-6.563 -14.63,-14.63 0,-8.067 6.563,-14.63 14.63,-14.63 z M 133.1,387.943 c -8.067,0 -14.629,-6.563 -14.629,-14.63 0,-8.066 6.563,-14.629 14.629,-14.629 8.066,0 14.629,6.563 14.629,14.629 -0.001,8.068 -6.563,14.63 -14.629,14.63 z M 256,415.254 c -8.067,0 -14.629,-6.563 -14.629,-14.629 0,-8.067 6.563,-14.63 14.629,-14.63 8.066,0 14.629,6.563 14.629,14.63 0,8.066 -6.562,14.629 -14.629,14.629 z M 254.759,47.089 c 8.067,0 14.63,6.563 14.63,14.63 0,8.067 -6.563,14.63 -14.63,14.63 -8.067,0 -14.629,-6.563 -14.629,-14.63 0,-8.067 6.562,-14.63 14.629,-14.63 z M 131.857,229.578 c 8.068,0 14.63,6.562 14.63,14.629 0,8.067 -6.563,14.63 -14.63,14.63 -8.067,0 -14.629,-6.563 -14.629,-14.63 0.001,-8.066 6.564,-14.629 14.629,-14.629 z m -84.147,-79.63 55.91,73.566 c -4.263,5.802 -6.789,12.957 -6.789,20.692 0,19.315 15.713,35.028 35.027,35.028 19.314,0 35.028,-15.713 35.028,-35.028 0,-7.832 -2.584,-15.071 -6.945,-20.911 L 244.48,95.205 c 3.252,1 6.703,1.541 10.278,1.541 1.65,0 3.272,-0.123 4.862,-0.345 l 54.735,139.574 -54.336,129.86 c -1.32,-0.151 -2.66,-0.238 -4.02,-0.238 -13.145,0 -24.617,7.282 -30.607,18.021 l -57.53,-14.528 c -2.093,-17.328 -16.88,-30.805 -34.764,-30.805 -19.314,0 -35.027,15.713 -35.027,35.027 0,5.995 1.516,11.642 4.182,16.581 l -54.543,60.69 z"
             id="path1130" />
        </g>
      </g>
      <g
         id="g1140">
        <g
           id="g1138">
          <path
             inkscape:connector-curvature="0"
             d="m 488.529,272.375 c -3.983,-3.983 -10.441,-3.983 -14.424,0 l -8.07,8.07 c -3.983,3.984 -3.983,10.441 0,14.425 1.992,1.991 4.602,2.987 7.212,2.987 2.61,0 5.221,-0.996 7.212,-2.987 l 8.07,-8.07 c 3.982,-3.984 3.982,-10.441 0,-14.425 z"
             id="path1136" />
        </g>
      </g>
      <g
         id="g1142" />
      <g
         id="g1144" />
      <g
         id="g1146" />
      <g
         id="g1148" />
      <g
         id="g1150" />
      <g
         id="g1152" />
      <g
         id="g1154" />
      <g
         id="g1156" />
      <g
         id="g1158" />
      <g
         id="g1160" />
      <g
         id="g1162" />
      <g
         id="g1164" />
      <g
         id="g1166" />
      <g
         id="g1168" />
      <g
         id="g1170" />
    </g>
    <text
       xml:space="preserve"
       style="font-style:normal;font-variant:normal;font-weight:normal;font-stretch:normal;font-size:18.66666603px;line-height:1.25;font-family:'Apple Braille';-inkscape-font-specification:'Apple Braille';letter-spacing:0px;word-spacing:0px;fill:#000000;fill-opacity:1;stroke:none"
       x="92.247963"
       y="291.50287"
       id="text1212-8"><tspan
         sodipodi:role="line"
         id="tspan1210-4"
         x="92.247963"
         y="291.50287"
         style="font-size:14.66666698px">3 graphiques</tspan></text>
    <g
       id="g426"
       transform="matrix(1.125573,0,0,-1.125573,102.9768,235.70098)">
      <path
         d="M 0,0 C -2.036,1.31 -4.014,2.665 -6.185,3.741 -7.128,4.208 -8.319,2.936 -7.389,2.18 -6.707,1.626 -6,1.115 -5.285,0.617 c -8.234,1.055 -16.732,1.786 -24.97,1.021 -0.011,0.384 -0.08,0.773 -0.222,1.158 -1.065,2.903 -5.461,2.77 -6.242,0.104 -0.195,-0.232 -0.345,-0.493 -0.418,-0.759 -0.413,-1.499 0.505,-3.078 1.788,-3.83 2.025,-1.187 4.085,-0.017 4.819,1.793 8.341,-0.594 16.594,-0.769 24.894,-1.78 -0.867,-0.627 -1.674,-1.338 -2.496,-2.185 -0.866,-0.892 0.023,-2.205 1.156,-1.986 2.996,0.58 5.122,1.766 7.217,3.975 C 0.786,-1.298 0.655,-0.422 0,0"
         style="fill:#000000;fill-opacity:1;fill-rule:nonzero;stroke:none"
         id="path428"
         inkscape:connector-curvature="0" />
    </g>
  </g>
</svg>
